<?xml version="1.0" encoding="UTF-8"?>
<svg id="Layer_2" data-name="Layer 2" xmlns="http://www.w3.org/2000/svg" xmlns:xlink="http://www.w3.org/1999/xlink" viewBox="0 0 3337.18 791.53">
  <defs>
    <style>
      .cls-1 {
        fill: url(#linear-gradient-2);
      }

      .cls-2 {
        fill: #fff;
      }

      .cls-3 {
        fill: url(#linear-gradient);
      }
    </style>
    <linearGradient id="linear-gradient" x1="1005.97" y1="395.77" x2="2492.15" y2="395.77" gradientUnits="userSpaceOnUse">
      <stop offset="0" stop-color="#026db2"/>
      <stop offset="1" stop-color="#3ec1ca"/>
    </linearGradient>
    <linearGradient id="linear-gradient-2" x1="222.11" y1="691.3" x2="668.91" y2="-16.66" xlink:href="#linear-gradient"/>
  </defs>
  <g id="Layer_1-2" data-name="Layer 1">
    <path class="cls-3" d="M1607.83,309.74v-37.41c0-34.91-9.05-60.95-27.12-78.1-18.08-17.14-46.14-25.72-84.18-25.72s-64.3,8.97-83.47,26.89c-19.17,17.93-28.76,43.57-28.76,76.93v37.41c0,34.92,9.19,60.95,27.59,78.1,18.39,17.15,46.6,25.72,84.64,25.72s64.14-8.88,83.01-26.66c18.86-17.77,28.29-43.49,28.29-77.16ZM1546.57,309.74c0,17.15-3.59,29.15-10.76,36.01-7.17,6.86-20.27,10.29-39.28,10.29s-32.27-3.51-39.75-10.52c-7.48-7.01-11.22-18.94-11.22-35.77v-37.41c0-16.83,3.74-28.76,11.22-35.77,7.48-7.01,20.73-10.52,39.75-10.52s32.11,3.43,39.28,10.29c7.17,6.86,10.76,18.87,10.76,36.01v37.41ZM1564.21,676.72h79.63v-15.93h-60.31v-50.96h53.94v-15.93h-53.94v-49.48h60.31v-15.93h-79.63v148.21ZM1887.01,168.51c-31.49,0-54.41,9.98-68.74,29.93-13.41-19.95-36.48-29.93-69.21-29.93s-57.68,8.11-74.82,24.32c-16.83,16.21-25.25,39.6-25.25,70.15v118.78c0,10.6,1.71,17.62,5.14,21.04,3.43,3.43,10.44,5.14,21.04,5.14h8.89c10.59,0,17.61-1.71,21.04-5.14s5.14-10.44,5.14-21.04v-118.78c0-13.71,2.81-23.3,8.42-28.76,5.61-5.45,15.74-8.18,30.4-8.18s25.17,2.65,30.63,7.95c5.45,5.3,8.18,14.96,8.18,28.99v118.78c0,10.6,1.71,17.62,5.14,21.04,3.43,3.43,10.44,5.14,21.04,5.14h7.01c10.59,0,17.61-1.71,21.04-5.14s5.14-10.44,5.14-21.04v-118.78c0-14.03,2.73-23.69,8.18-28.99,5.45-5.3,15.97-7.95,31.57-7.95,14.65,0,24.62,2.65,29.93,7.95,5.3,5.3,7.95,14.96,7.95,28.99v118.78c0,10.6,1.71,17.62,5.14,21.04,3.43,3.43,10.44,5.14,21.04,5.14h8.89c10.59,0,17.61-1.71,21.04-5.14s5.14-10.44,5.14-21.04v-118.78c0-31.8-8.11-55.49-24.32-71.08-16.21-15.59-41.15-23.38-74.82-23.38ZM1323.21,656.34l-46.5-127.62h-20.6l55.85,148h22.3l55.84-148h-20.38l-46.5,127.62ZM1005.97,676.72h79.63v-15.93h-60.31v-50.96h53.94v-15.93h-53.94v-49.48h60.31v-15.93h-79.63v148.21ZM1281.88,262.97v118.78c0,10.6,1.71,17.62,5.14,21.04,3.43,3.43,10.44,5.14,21.04,5.14h8.89c10.59,0,17.61-1.71,21.04-5.14s5.14-10.44,5.14-21.04v-118.78c0-31.8-8.11-55.49-24.32-71.08-16.21-15.59-41.15-23.38-74.82-23.38-31.49,0-54.41,9.98-68.74,29.93-13.41-19.95-36.48-29.93-69.21-29.93s-57.68,8.11-74.82,24.32c-16.83,16.21-25.25,39.6-25.25,70.15v118.78c0,10.6,1.71,17.62,5.14,21.04,3.43,3.43,10.44,5.14,21.04,5.14h8.89c10.59,0,17.61-1.71,21.04-5.14s5.14-10.44,5.14-21.04v-118.78c0-13.71,2.81-23.3,8.42-28.76,5.61-5.45,15.74-8.18,30.4-8.18s25.17,2.65,30.63,7.95c5.45,5.3,8.18,14.96,8.18,28.99v118.78c0,10.6,1.71,17.62,5.14,21.04,3.43,3.43,10.44,5.14,21.04,5.14h7.01c10.59,0,17.61-1.71,21.04-5.14s5.14-10.44,5.14-21.04v-118.78c0-14.03,2.73-23.69,8.18-28.99,5.45-5.3,15.97-7.95,31.57-7.95,14.65,0,24.62,2.65,29.93,7.95,5.3,5.3,7.95,14.96,7.95,28.99ZM1923.07,646.14l-77.72-117.64h-19.32v148.21h19.32v-117.85l77.72,117.85h19.32v-148.21h-19.32v117.64ZM2119.06,544.43h40.56v132.29h19.32v-132.29h40.34v-15.71h-100.22v15.71ZM3312.86,191.89c-16.21-15.59-41.15-23.38-74.82-23.38-31.49,0-54.41,9.98-68.74,29.93-13.41-19.95-36.48-29.93-69.21-29.93s-57.68,8.11-74.82,24.32c-16.83,16.21-25.25,39.6-25.25,70.15v118.78c0,10.6,1.71,17.62,5.14,21.04,3.43,3.43,10.44,5.14,21.04,5.14h8.89c10.59,0,17.61-1.71,21.04-5.14s5.14-10.44,5.14-21.04v-118.78c0-13.71,2.81-23.3,8.42-28.76,5.61-5.45,15.74-8.18,30.4-8.18s25.17,2.65,30.63,7.95c5.45,5.3,8.18,14.96,8.18,28.99v118.78c0,10.6,1.71,17.62,5.14,21.04,3.43,3.43,10.44,5.14,21.04,5.14h7.01c10.59,0,17.61-1.71,21.04-5.14s5.14-10.44,5.14-21.04v-118.78c0-14.03,2.73-23.69,8.18-28.99,5.45-5.3,15.97-7.95,31.57-7.95,14.65,0,24.62,2.65,29.93,7.95,5.3,5.3,7.95,14.96,7.95,28.99v118.78c0,10.6,1.71,17.62,5.14,21.04,3.43,3.43,10.44,5.14,21.04,5.14h8.89c10.59,0,17.61-1.71,21.04-5.14s5.14-10.44,5.14-21.04v-118.78c0-31.8-8.11-55.49-24.32-71.08ZM2707.5,353.46c-3.27-2.34-10.21-2.57-20.81-.7-9.35,1.87-20.27,2.81-32.74,2.81-19.64,0-29.46-10.44-29.46-31.33v-92.59h53.31c10.6,0,17.61-1.71,21.04-5.14,3.43-3.43,5.14-10.44,5.14-21.04v-5.14c0-10.59-1.72-17.61-5.14-21.04-3.43-3.43-10.45-5.14-21.04-5.14h-53.31v-36.48c0-9.97-1.56-16.52-4.68-19.64-3.12-3.11-9.67-4.68-19.64-4.68h-2.81c-9.98,0-16.83,1.56-20.58,4.68-3.74,3.12-6.24,9.51-7.48,19.17l-5.61,36.94-19.17,4.21c-9.05,1.87-15.13,4.68-18.24,8.42-3.12,3.74-4.68,10.29-4.68,19.64v1.87c0,9.35,1.56,15.59,4.68,18.71,3.11,3.12,9.35,4.68,18.71,4.68h18.71v92.13c0,59.55,30.08,89.32,90.26,89.32,14.03,0,24.94-.94,32.74-2.81,9.97-2.18,16.75-5.61,20.34-10.29,3.58-4.68,5.38-12.31,5.38-22.91v-5.14c0-9.97-1.64-16.13-4.91-18.47ZM2927.99,174.12h-8.88c-10.6,0-17.62,1.72-21.04,5.14s-5.14,10.45-5.14,21.04v118.78c0,14.03-3.12,23.7-9.35,28.99-6.24,5.3-17.93,7.95-35.07,7.95s-28.99-2.73-35.54-8.18c-6.55-5.45-9.82-15.04-9.82-28.76v-118.78c0-10.59-1.72-17.61-5.14-21.04-3.43-3.43-10.45-5.14-21.04-5.14h-8.89c-10.6,0-17.62,1.72-21.04,5.14s-5.14,10.45-5.14,21.04v118.78c0,30.86,8.96,54.33,26.89,70.38,17.92,16.06,44.5,24.08,79.73,24.08s62.82-7.72,79.97-23.15c17.14-15.43,25.72-39.2,25.72-71.32v-118.78c0-10.59-1.72-17.61-5.14-21.04-3.43-3.43-10.45-5.14-21.04-5.14ZM2136.27,168.51c-72.65,0-108.96,35.07-108.96,105.22v37.41c0,35.54,9.82,61.5,29.46,77.86,19.64,16.37,50.5,24.55,92.59,24.55,23.69,0,42.71-2.03,57.05-6.08,10.29-2.49,16.99-5.61,20.11-9.35,3.11-3.74,4.68-10.76,4.68-21.04v-5.14c0-10.91-1.64-17.92-4.91-21.04-3.27-3.11-9.9-3.58-19.88-1.4-21.83,4.37-40.68,6.55-56.58,6.55-21.51,0-37.1-2.88-46.76-8.65-9.67-5.77-14.5-14.73-14.5-26.89v-7.01h118.78c11.22,0,18.78-1.64,22.68-4.91,3.89-3.27,6.47-10.21,7.72-20.81.62-9.97.93-16.05.93-18.24,0-67.34-34.14-101.01-102.41-101.01ZM2180.69,263.91h-92.13v-7.01c0-23.69,15.27-35.54,45.83-35.54s46.3,11.85,46.3,35.54v7.01ZM2466.43,191.66c-17.15-15.43-43.81-23.15-79.97-23.15s-61.81,8.03-79.73,24.08c-17.93,16.06-26.89,39.52-26.89,70.38v118.78c0,10.6,1.71,17.62,5.14,21.04,3.43,3.43,10.44,5.14,21.04,5.14h8.89c10.59,0,17.61-1.71,21.04-5.14s5.14-10.44,5.14-21.04v-118.78c0-13.71,3.27-23.3,9.82-28.76,6.55-5.45,18.39-8.18,35.54-8.18s28.83,2.65,35.07,7.95c6.23,5.3,9.35,14.96,9.35,28.99v118.78c0,10.6,1.71,17.62,5.14,21.04,3.43,3.43,10.44,5.14,21.04,5.14h8.88c10.59,0,17.61-1.71,21.04-5.14s5.14-10.44,5.14-21.04v-118.78c0-32.11-8.58-55.88-25.72-71.32ZM2470.49,602.08c-5.94-2.62-13.8-5.27-23.57-7.96-8.07-2.26-14.33-4.28-18.79-6.05-4.46-1.77-8.21-4.35-11.25-7.75-3.05-3.4-4.57-7.78-4.57-13.16,0-7.5,2.55-13.34,7.64-17.52,5.1-4.17,11.68-6.26,19.75-6.26,8.63,0,15.57,2.16,20.81,6.48,5.23,4.32,8.21,9.31,8.92,14.97h21.23c-1.14-11.47-6.13-20.67-14.97-27.6-8.85-6.93-20.21-10.41-34.08-10.41-9.63,0-18.16,1.7-25.59,5.1-7.43,3.4-13.2,8.21-17.31,14.44-4.11,6.23-6.16,13.38-6.16,21.45,0,9.2,2.09,16.53,6.27,21.98,4.17,5.45,9.2,9.45,15.08,12,5.87,2.55,13.7,5.09,23.46,7.64,7.93,2.12,14.23,4.11,18.9,5.95,4.67,1.84,8.56,4.53,11.68,8.07,3.11,3.54,4.67,8.14,4.67,13.8,0,7.22-2.65,13.13-7.96,17.73-5.31,4.6-12.57,6.9-21.77,6.9s-16.95-2.37-21.98-7.11c-5.03-4.74-7.89-10.58-8.6-17.52h-20.6c.14,8.07,2.41,15.18,6.79,21.34,4.39,6.16,10.44,10.97,18.16,14.44,7.71,3.47,16.46,5.2,26.22,5.2s19.04-1.98,26.54-5.95c7.5-3.96,13.16-9.13,16.99-15.5,3.82-6.37,5.73-13.17,5.73-20.38,0-9.34-2.12-16.74-6.37-22.19-4.25-5.45-9.34-9.48-15.29-12.1Z"/>
    <g>
      <path class="cls-1" d="M778.46,289.96c-3.01-4.52-6.19-9.07-9.49-13.62-.07-5.76-.24-11.42-.53-16.97-3.76-72.1-26.08-118.33-62.84-130.18-20.92-6.74-44.54-1.7-69.33,14.27-10.31-8-20.92-15.87-31.79-23.56-10.1-7.14-20.27-14-30.46-20.6,6.47-28.52,3.19-52.45-10.12-70.09-23.62-31.32-74.96-37.7-144.55-17.98-5.92,1.68-11.93,3.54-18,5.55-5.13-1.5-10.21-2.9-15.23-4.17-70.08-17.71-121.07-9.93-143.58,21.92-12.47,17.64-15.05,41.06-8.07,68.67-10.13,6.99-20.22,14.26-30.23,21.81-9.64,7.27-19.06,14.69-28.23,22.21-24.45-14.9-47.61-19.31-68.02-12.43-36.6,12.33-58.31,58.85-61.12,130.99-.23,5.96-.33,12.04-.3,18.23-3.81,5.55-7.42,11.08-10.82,16.58C-2.33,362.1-10.29,413.21,13.33,444.53c13.23,17.53,35.14,27.25,64.08,28.95,3.15,10.66,6.53,21.36,10.14,32.07,3.78,11.23,7.76,22.29,11.91,33.17-22.89,19.31-34.84,40.77-34.55,63.14.51,39,38.12,74.3,105.9,99.4,6.13,2.27,12.45,4.43,18.94,6.49,3.47,4.57,6.96,9.02,10.48,13.29,38,46.16,75.68,70.48,108.3,70.48,6.77,0,13.33-1.05,19.62-3.17,20.67-6.96,36.59-24.84,47.04-52.07,8.14.23,16.34.34,24.59.34,3.9,0,7.82-.03,11.75-.08,11.89-.16,23.68-.55,35.34-1.17,10.8,26.39,26.77,43.62,47.21,50.21,6.05,1.95,12.33,2.92,18.8,2.92,32.82,0,70.51-24.85,108.23-71.91,3.75-4.67,7.46-9.53,11.14-14.55,6.52-2.26,12.86-4.61,19-7.07,67.1-26.87,103.77-63.14,103.26-102.14-.29-21.87-12.24-42.57-34.63-60.97,3.86-10.58,7.55-21.33,11.07-32.24,3.91-12.14,7.53-24.26,10.86-36.32,29.29-2.35,51.17-12.66,63.91-30.69,22.51-31.85,12.84-82.52-27.23-142.67ZM725.77,443.13c-17.09-.27-36.79-3.12-58.59-8.63-48.69-12.31-103.48-36.44-158.4-69.44,24.31-60.7,54.01-114.1,85.94-153.94,13.88-17.32,27.67-31.33,40.91-41.8,45.42,36.59,84.15,75.68,112.69,113.86-.12,48.01-7.89,102.97-22.56,159.95ZM686.83,146.98c4.34,0,8.49.63,12.43,1.9,25.74,8.3,42.85,44.22,47.67,99.31-25.88-30.79-57.59-61.67-93.44-91.01,11.89-6.71,23.13-10.2,33.34-10.2ZM592.54,136.79c9.01,6.37,17.82,12.85,26.43,19.44-13.31,11.05-26.85,25.06-40.39,41.95-32.57,40.63-62.81,94.63-87.64,155.84-11.79-7.5-23.56-15.38-35.24-23.64-10.79-7.63-21.31-15.43-31.52-23.37,49.29-43.44,89.96-89.7,117.31-133.87,11.63-18.78,20.43-36.58,26.4-53.15,8.25,5.42,16.47,11.01,24.66,16.8ZM455.9,458.82c-15.78-.65-31.82-.89-48.02-.67-15.58.2-31,.82-46.19,1.81-3.97-14.05-8.34-28.18-13.1-42.34-4.68-13.9-9.66-27.55-14.89-40.9,13.18-8.85,26.3-18.18,39.3-27.99,12.1-9.12,23.83-18.47,35.18-27.98,11.5,9.03,23.37,17.88,35.58,26.52,13.08,9.25,26.28,18.04,39.51,26.36-5.12,13.55-9.97,27.41-14.51,41.51-4.71,14.61-8.99,29.19-12.85,43.67ZM401.74,38.51c46.48,14.37,97.46,38.48,148.22,70.03-5.41,16.35-14.12,34.43-26.06,53.72-26.82,43.32-67.15,88.86-116.16,131.65-50.52-41.33-92.45-85.68-120.76-128.17-12.89-19.34-22.36-37.53-28.28-53.97,48.68-32.32,97.81-57.51,143.03-73.27ZM490.43,20.68c26.69,0,46.45,7.06,56.96,20.99h0c8.42,11.16,10.96,26.84,7.87,45.83-40.48-24.71-81.08-44.81-119.55-59.22,20.38-5.08,38.79-7.61,54.72-7.61ZM259.43,46.48c10.52-14.88,31.53-22.47,60.34-22.47,14.1,0,30.07,1.83,47.59,5.5-37.06,15.36-75.89,36.16-114.46,61.32-3.36-18.16-1.28-33.31,6.52-44.35ZM216.69,141.53c8.1-6.11,16.25-12.03,24.43-17.76,6.53,16.69,16.1,34.6,28.65,53.44,28.86,43.32,71.15,88.35,121.97,130.32-10.09,8.37-20.51,16.62-31.21,24.69-11.52,8.69-23.14,17-34.8,24.92-25.66-61.02-56.67-114.74-89.83-155.02-14.23-17.29-28.42-31.5-42.31-42.53,7.54-6.1,15.24-12.12,23.1-18.05ZM67.32,290.42c27.68-39.15,65.48-79.44,109.98-117.32,13.74,10.38,28.12,24.53,42.64,42.16,32.57,39.56,63.08,92.82,88.24,153.48-53.76,34.54-107.69,60.2-155.94,73.87-21.99,6.23-41.9,9.65-59.2,10.32-15.98-57.76-24.84-113.66-25.72-162.51ZM114.59,154.4c4.1-1.38,8.45-2.06,13-2.06,9.68,0,20.31,3.08,31.58,9.06-35,30.25-65.86,61.98-90.99,93.5,4.02-55.47,20.69-91.83,46.4-100.49ZM29.84,432.08c-16.86-22.35-10.17-62.75,18.2-111.74,3.1,41.14,11.04,85.92,23.37,131.86-18.95-2.28-33.2-9.02-41.57-20.12ZM107.15,498.95c-2.88-8.55-5.6-17.09-8.19-25.6,17.72-1.15,37.45-4.75,58.92-10.83,49.13-13.93,103.74-39.68,158.12-74.24,4.54,11.76,8.88,23.75,12.99,35.94,4.21,12.5,8.1,24.97,11.67,37.37-64.94,5.88-124.62,18.97-172.49,38.13-19.88,7.96-37.07,16.76-51.44,26.2-3.31-8.87-6.51-17.86-9.58-26.97ZM368.6,656.57c-.87,22.43-3.68,42.08-8.2,58.49-58.11-2.67-112.41-11.26-158.11-25.06-28.85-39.21-55.63-88.85-77.9-144.31,13.82-9.57,31.09-18.6,51.47-26.76,46.97-18.81,105.99-31.54,170.36-37.06,16.51,63.2,24.37,123.73,22.38,174.71ZM85.59,601.59c-.19-14.26,7.47-28.68,21.96-42.4,18.12,44.15,39.05,84.66,61.61,119.26-52.89-21.22-83.21-48.97-83.58-76.87ZM321.54,768.77c-4.1,1.38-8.45,2.06-13,2.06-23.88,0-53.55-18.74-84.28-53.47,39.09,9.45,82.82,15.58,128.92,18.04-7.92,17.48-18.61,28.98-31.64,33.37ZM411.25,715.88c-3.86.05-7.69.08-11.52.08-6.08,0-12.13-.07-18.15-.2,4.23-16.94,6.83-36.47,7.69-58.38,2.02-51.93-5.72-113.2-22.08-177.05,13.48-.81,27.15-1.32,40.97-1.5,3.85-.05,7.69-.08,11.52-.08,10.43,0,20.78.19,31.01.56-15.31,63.62-22.15,124.54-19.45,176.11,1.17,22.47,4.15,42.42,8.8,59.6-9.51.44-19.11.73-28.78.86ZM619.33,684.59c-45.53,15.04-99.87,25.05-158.17,29.2-4.91-16.56-8.08-36.54-9.28-59.45-2.64-50.68,4.33-110.95,19.84-174,63.87,3.92,122.63,15.07,169.68,32.5,21.31,7.89,39.31,16.81,53.62,26.38-21.44,55.7-47.46,105.7-75.69,145.38ZM500.41,765.91c-12.83-4.14-23.52-15.14-31.61-31.96,46.11-3.62,89.77-10.86,128.7-21.3-36.22,42.24-71.26,61.58-97.09,53.26ZM733.81,593.11c.36,27.83-29.09,56.3-81.19,78.88,21.89-34.82,42.07-75.4,59.43-119.51,14.02,12.99,21.58,26.8,21.76,40.64ZM648.59,493.44c-47.89-17.74-107.23-29.21-171.59-33.48,3.48-12.76,7.29-25.59,11.44-38.46,4.03-12.51,8.31-24.81,12.79-36.86,55.63,33.09,111.22,57.37,160.89,69.92,21.21,5.36,40.65,8.38,58.1,9.11-2.8,9.85-5.78,19.73-8.98,29.64-2.83,8.79-5.79,17.47-8.85,26.04-14.94-9.47-32.94-18.17-53.8-25.89ZM788.81,420.69c-8.05,11.39-22.26,18.5-41.39,21.22,11.28-45.3,18.3-89.35,20.68-129.77,28.9,47.03,36.51,86.22,20.71,108.56Z"/>
      <circle class="cls-2" cx="404.86" cy="24.7" r="21.9"/>
      <circle class="cls-2" cx="404.86" cy="304.73" r="21.9"/>
      <circle class="cls-2" cx="317.97" cy="371.91" r="21.9"/>
      <circle class="cls-2" cx="352.91" cy="473.75" r="21.9"/>
      <circle class="cls-2" cx="496.22" cy="371.91" r="21.9"/>
      <circle class="cls-2" cx="461.43" cy="468.38" r="21.9"/>
      <circle class="cls-2" cx="55.76" cy="293.18" r="21.9"/>
      <circle class="cls-2" cx="193.28" cy="697.41" r="21.9"/>
      <circle class="cls-2" cx="629.19" cy="690.85" r="21.9"/>
      <circle class="cls-2" cx="755.7" cy="274.97" r="21.9"/>
    </g>
  </g>
</svg>