<?xml version="1.0" encoding="UTF-8"?>
<svg id="Layer_1" data-name="Layer 1" xmlns="http://www.w3.org/2000/svg" xmlns:xlink="http://www.w3.org/1999/xlink" viewBox="0 0 217.57 210.64">
  <defs>
    <style>
      .cls-1 {
        fill: #fff;
      }

      .cls-2 {
        fill: url(#linear-gradient);
      }
    </style>
    <linearGradient id="linear-gradient" x1="59.11" y1="183.96" x2="178.01" y2="-4.43" gradientUnits="userSpaceOnUse">
      <stop offset="0" stop-color="#026db2"/>
      <stop offset="1" stop-color="#3ec1ca"/>
    </linearGradient>
  </defs>
  <path class="cls-2" d="M207.16,77.16c-.8-1.2-1.66-2.41-2.53-3.62-.02-1.53-.06-3.04-.13-4.52-1-19.19-6.94-31.49-16.72-34.64-5.57-1.79-11.85-.45-18.45,3.8-2.75-2.13-5.56-4.23-8.46-6.28-2.69-1.9-5.39-3.72-8.11-5.48,1.72-7.59.85-13.96-2.69-18.65-6.29-8.33-19.95-10.03-38.47-4.78-1.57.45-3.17.95-4.78,1.49-1.37-.4-2.73-.78-4.06-1.12-18.65-4.71-32.22-2.64-38.21,5.83-3.32,4.69-4,10.93-2.14,18.27-2.7,1.86-5.39,3.79-8.05,5.8-2.57,1.94-5.07,3.91-7.51,5.92-6.51-3.96-12.67-5.14-18.1-3.31-9.74,3.28-15.52,15.66-16.26,34.86-.06,1.58-.08,3.21-.07,4.86-1.01,1.47-1.99,2.94-2.89,4.4C-.62,96.36-2.74,109.96,3.55,118.3c3.52,4.66,9.35,7.24,17.05,7.7.84,2.84,1.74,5.69,2.7,8.54,1.01,2.99,2.07,5.93,3.17,8.83-6.09,5.14-9.27,10.85-9.2,16.8.14,10.38,10.14,19.77,28.18,26.45,1.63.6,3.32,1.17,5.04,1.72.92,1.22,1.85,2.41,2.79,3.55,10.11,12.28,20.14,18.76,28.82,18.76,1.8,0,3.55-.28,5.22-.84,5.5-1.85,9.74-6.62,12.52-13.87,2.17.06,4.35.1,6.54.1,1.04,0,2.08,0,3.13-.02,3.17-.04,6.3-.15,9.41-.31,2.87,7.02,7.12,11.61,12.56,13.36,1.61.52,3.28.78,5,.78,8.73,0,18.76-6.61,28.8-19.14,1-1.24,1.98-2.55,2.96-3.88,1.73-.6,3.43-1.22,5.06-1.87,17.86-7.15,27.62-16.8,27.48-27.18-.08-5.82-3.26-11.33-9.22-16.22,1.03-2.82,2.01-5.68,2.94-8.58,1.04-3.23,2-6.46,2.88-9.67,7.8-.62,13.62-3.37,17.01-8.17,5.99-8.48,3.42-21.96-7.25-37.97ZM193.13,117.92c-4.55-.07-9.78-.82-15.59-2.29-12.96-3.27-27.53-9.7-42.15-18.48,6.47-16.15,14.37-30.37,22.86-40.97,3.69-4.61,7.36-8.33,10.89-11.12,12.09,9.74,22.39,20.14,29.98,30.29-.03,12.77-2.1,27.4-6,42.56ZM182.77,39.11c1.15,0,2.26.17,3.31.5,6.85,2.21,11.4,11.77,12.68,26.43-6.89-8.19-15.32-16.41-24.86-24.21,3.16-1.79,6.16-2.72,8.87-2.72ZM157.68,36.4c2.4,1.7,4.75,3.42,7.04,5.18-3.54,2.94-7.15,6.66-10.75,11.16-8.66,10.81-16.71,25.18-23.32,41.46-3.14-2-6.27-4.09-9.38-6.29-2.87-2.03-5.66-4.11-8.38-6.22,13.11-11.56,23.94-23.87,31.21-35.62,3.09-5,5.43-9.73,7.02-14.14,2.2,1.44,4.39,2.93,6.57,4.47ZM121.33,122.1c-4.2-.17-8.47-.24-12.78-.18-4.15.05-8.25.22-12.3.49-1.06-3.74-2.21-7.5-3.48-11.27-1.25-3.7-2.58-7.33-3.97-10.88,3.51-2.36,7.01-4.84,10.47-7.45,3.22-2.43,6.34-4.92,9.36-7.45,3.06,2.4,6.22,4.77,9.47,7.07,3.48,2.46,7,4.8,10.52,7.02-1.36,3.61-2.66,7.29-3.87,11.05-1.25,3.89-2.39,7.77-3.42,11.62ZM106.9,10.25c12.37,3.82,25.94,10.23,39.45,18.63-1.44,4.35-3.75,9.16-6.93,14.3-7.14,11.53-17.87,23.64-30.91,35.03-13.44-11-24.6-22.79-32.14-34.1-3.43-5.15-5.95-9.98-7.52-14.36,12.95-8.6,26.02-15.3,38.05-19.49ZM130.51,5.5c7.1,0,12.36,1.88,15.16,5.59,2.24,2.97,2.9,7.15,2.08,12.2-10.77-6.57-21.57-11.93-31.8-15.76,5.42-1.35,10.32-2.03,14.56-2.03ZM69.04,12.37c2.8-3.96,8.39-5.98,16.06-5.98,3.75,0,8,.49,12.66,1.47-9.85,4.09-20.18,9.63-30.44,16.32-.89-4.83-.35-8.87,1.72-11.8ZM57.67,37.66c2.16-1.63,4.33-3.2,6.5-4.72,1.74,4.44,4.28,9.21,7.62,14.22,7.68,11.52,18.93,23.51,32.45,34.67-2.69,2.23-5.45,4.43-8.3,6.58-3.07,2.31-6.16,4.52-9.27,6.62-6.83-16.23-15.08-30.53-23.9-41.25-3.79-4.6-7.56-8.38-11.26-11.31,2.01-1.62,4.05-3.23,6.14-4.81ZM17.92,77.28c7.37-10.42,17.42-21.13,29.27-31.21,3.66,2.76,7.48,6.52,11.35,11.22,8.67,10.53,16.78,24.71,23.47,40.85-14.3,9.19-28.65,16.02-41.49,19.66-5.85,1.66-11.15,2.56-15.75,2.74-4.25-15.37-6.61-30.24-6.84-43.25ZM30.49,41.09c1.09-.37,2.25-.55,3.46-.55,2.58,0,5.41.82,8.41,2.42-9.31,8.05-17.54,16.49-24.22,24.88,1.07-14.76,5.5-24.44,12.35-26.75ZM7.94,114.98c-4.48-5.95-2.7-16.7,4.84-29.73.83,10.94,2.94,22.85,6.22,35.07-5.04-.61-8.84-2.39-11.06-5.34ZM28.51,132.78c-.77-2.28-1.49-4.55-2.17-6.82,4.72-.31,9.96-1.25,15.67-2.87,13.07-3.71,27.6-10.56,42.07-19.76,1.21,3.13,2.37,6.32,3.46,9.56,1.12,3.33,2.15,6.64,3.1,9.95-17.28,1.56-33.16,5.05-45.89,10.15-5.29,2.12-9.86,4.46-13.68,6.97-.88-2.36-1.74-4.75-2.55-7.17ZM98.09,174.72c-.23,5.97-.98,11.19-2.19,15.56-15.46-.71-29.91-2.99-42.06-6.66-7.68-10.43-14.8-23.64-20.73-38.39,3.68-2.55,8.26-4.96,13.69-7.13,12.5-5,28.2-8.39,45.33-9.86,4.39,16.82,6.49,32.92,5.96,46.49ZM22.78,160.09c-.05-3.79,2-7.63,5.86-11.28,4.82,11.74,10.38,22.52,16.39,31.73-14.07-5.65-22.15-13.03-22.24-20.45ZM85.57,204.58c-1.09.37-2.25.55-3.46.55-6.35,0-14.25-5-22.43-14.24,10.4,2.51,22.03,4.15,34.29,4.8-2.11,4.64-4.94,7.72-8.4,8.88ZM109.44,190.5c-1.03.01-2.05.02-3.07.02-1.62,0-3.23-.02-4.83-.06,1.12-4.51,1.82-9.7,2.05-15.53.54-13.82-1.52-30.12-5.88-47.1,3.59-.22,7.22-.36,10.9-.41,1.03-.01,2.05-.02,3.07-.02,2.78,0,5.53.05,8.25.15-4.08,16.93-5.89,33.14-5.18,46.87.31,5.98,1.1,11.28,2.34,15.86-2.53.12-5.08.2-7.66.23ZM164.81,182.18c-12.11,4-26.57,6.66-42.08,7.77-1.31-4.41-2.15-9.72-2.47-15.82-.7-13.48,1.16-29.52,5.28-46.3,17,1.04,32.63,4,45.15,8.64,5.67,2.1,10.46,4.48,14.27,7.02-5.71,14.82-12.63,28.13-20.15,38.68ZM133.17,203.82c-3.41-1.1-6.25-4.04-8.4-8.51,12.27-.96,23.88-2.88,34.24-5.66-9.64,11.24-18.96,16.39-25.84,14.18ZM195.28,157.83c.1,7.4-7.74,14.98-21.6,20.98,5.82-9.26,11.18-20.06,15.8-31.79,3.73,3.45,5.76,7.12,5.8,10.8ZM172.6,131.31c-12.74-4.72-28.53-7.77-45.65-8.91.93-3.4,1.93-6.81,3.03-10.24,1.07-3.33,2.22-6.6,3.41-9.81,14.8,8.8,29.59,15.27,42.81,18.61,5.64,1.43,10.82,2.23,15.46,2.42-.74,2.62-1.54,5.25-2.39,7.89-.75,2.34-1.55,4.64-2.36,6.92-3.98-2.52-8.76-4.83-14.31-6.89ZM209.91,111.95c-2.14,3.03-5.93,4.91-11.02,5.63,3-12.05,4.87-23.77,5.51-34.52,7.69,12.52,9.72,22.94,5.51,28.89Z"/>
  <circle class="cls-1" cx="107.74" cy="6.57" r="5.83"/>
  <circle class="cls-1" cx="107.74" cy="81.09" r="5.83"/>
  <circle class="cls-1" cx="84.62" cy="98.97" r="5.83"/>
  <circle class="cls-1" cx="93.91" cy="126.07" r="5.83"/>
  <circle class="cls-1" cx="132.05" cy="98.97" r="5.83"/>
  <circle class="cls-1" cx="122.79" cy="124.64" r="5.83"/>
  <circle class="cls-1" cx="14.84" cy="78.02" r="5.83"/>
  <circle class="cls-1" cx="51.44" cy="185.59" r="5.83"/>
  <circle class="cls-1" cx="167.44" cy="183.85" r="5.83"/>
  <circle class="cls-1" cx="201.1" cy="73.17" r="5.83"/>
</svg>